<?xml version="1.0" encoding="UTF-8" standalone="no"?>
<svg
   xmlns:dc="http://purl.org/dc/elements/1.1/"
   xmlns:cc="http://creativecommons.org/ns#"
   xmlns:rdf="http://www.w3.org/1999/02/22-rdf-syntax-ns#"
   xmlns:svg="http://www.w3.org/2000/svg"
   xmlns="http://www.w3.org/2000/svg"
   xmlns:sodipodi="http://sodipodi.sourceforge.net/DTD/sodipodi-0.dtd"
   xmlns:inkscape="http://www.inkscape.org/namespaces/inkscape"
   version="1.1"
   viewBox="0 0 299.80963 303.50558"
   stroke-miterlimit="10"
   id="svg81"
   sodipodi:docname="symforce vertical.svg"
   inkscape:version="0.92.3 (2405546, 2018-03-11)"
   width="299.80963"
   height="303.50558"
   style="fill:none;stroke:none;stroke-linecap:square;stroke-miterlimit:10">
  <metadata
     id="metadata3793">
    <rdf:RDF>
      <cc:Work
         rdf:about="">
        <dc:format>image/svg+xml</dc:format>
        <dc:type
           rdf:resource="http://purl.org/dc/dcmitype/StillImage" />
        <dc:title></dc:title>
      </cc:Work>
    </rdf:RDF>
  </metadata>
  <defs
     id="defs85">
    <inkscape:path-effect
       effect="offset"
       id="path-effect4816"
       is_visible="true"
       lpeversion="1"
       linejoin_type="miter"
       unit="mm"
       offset="0.6"
       miter_limit="4"
       attempt_force_join="false"
       update_on_knot_move="true" />
    <inkscape:path-effect
       effect="offset"
       id="path-effect4488"
       is_visible="true"
       lpeversion="1"
       linejoin_type="miter"
       unit="mm"
       offset="-0.3"
       miter_limit="4"
       attempt_force_join="false"
       update_on_knot_move="true" />
    <inkscape:path-effect
       effect="offset"
       id="path-effect3956"
       is_visible="true"
       lpeversion="1"
       linejoin_type="miter"
       unit="mm"
       offset="0.25"
       miter_limit="4"
       attempt_force_join="false"
       update_on_knot_move="true" />
    <inkscape:path-effect
       effect="offset"
       id="path-effect2234"
       is_visible="true"
       lpeversion="1"
       linejoin_type="miter"
       unit="mm"
       offset="0"
       miter_limit="4"
       attempt_force_join="false"
       update_on_knot_move="true" />
    <inkscape:path-effect
       effect="offset"
       id="path-effect2030"
       is_visible="true"
       lpeversion="1"
       linejoin_type="miter"
       unit="mm"
       offset="-3.4"
       miter_limit="4"
       attempt_force_join="false"
       update_on_knot_move="true" />
    <inkscape:path-effect
       effect="offset"
       id="path-effect1943"
       is_visible="true"
       lpeversion="1"
       linejoin_type="miter"
       unit="mm"
       offset="-3.4"
       miter_limit="4"
       attempt_force_join="false"
       update_on_knot_move="true" />
    <inkscape:path-effect
       effect="offset"
       id="path-effect4816-2"
       is_visible="true"
       lpeversion="1"
       linejoin_type="miter"
       unit="mm"
       offset="0.6"
       miter_limit="4"
       attempt_force_join="false"
       update_on_knot_move="true" />
    <inkscape:path-effect
       effect="offset"
       id="path-effect4488-9"
       is_visible="true"
       lpeversion="1"
       linejoin_type="miter"
       unit="mm"
       offset="-0.3"
       miter_limit="4"
       attempt_force_join="false"
       update_on_knot_move="true" />
    <inkscape:path-effect
       effect="offset"
       id="path-effect3956-1"
       is_visible="true"
       lpeversion="1"
       linejoin_type="miter"
       unit="mm"
       offset="0.25"
       miter_limit="4"
       attempt_force_join="false"
       update_on_knot_move="true" />
    <inkscape:path-effect
       effect="offset"
       id="path-effect2234-2"
       is_visible="true"
       lpeversion="1"
       linejoin_type="miter"
       unit="mm"
       offset="0"
       miter_limit="4"
       attempt_force_join="false"
       update_on_knot_move="true" />
    <inkscape:path-effect
       effect="offset"
       id="path-effect2030-7"
       is_visible="true"
       lpeversion="1"
       linejoin_type="miter"
       unit="mm"
       offset="-3.4"
       miter_limit="4"
       attempt_force_join="false"
       update_on_knot_move="true" />
    <inkscape:path-effect
       effect="offset"
       id="path-effect1943-0"
       is_visible="true"
       lpeversion="1"
       linejoin_type="miter"
       unit="mm"
       offset="-3.4"
       miter_limit="4"
       attempt_force_join="false"
       update_on_knot_move="true" />
  </defs>
  <sodipodi:namedview
     id="namedview83"
     pagecolor="#ffffff"
     bordercolor="#999999"
     borderopacity="1"
     inkscape:pageshadow="0"
     inkscape:pageopacity="0"
     inkscape:pagecheckerboard="true"
     showgrid="false"
     inkscape:zoom="2.7958333"
     inkscape:cx="-83.38301"
     inkscape:cy="161.80328"
     inkscape:window-width="3440"
     inkscape:window-height="1372"
     inkscape:window-x="1440"
     inkscape:window-y="370"
     inkscape:window-maximized="1"
     inkscape:current-layer="svg81"
     fit-margin-top="30"
     fit-margin-left="30"
     fit-margin-right="30"
     fit-margin-bottom="30" />
  <g
     clip-path="none"
     id="g79"
     inkscape:label="logo"
     transform="matrix(2.0518124,0,0,2.0518124,-121.42333,-713.0595)">
    <path
       style="display:inline;fill:#ffffff;fill-opacity:1"
       d="m 150.49805,419.57031 c -19.94012,2.68545 -39.8802,5.3712 -59.820316,8.05664 -4.338542,7.45117 -8.677083,14.90235 -13.015625,22.35352 C 100.31647,442.65386 122.97063,435.32661 145.625,428 c 1.62446,-2.80983 3.2486,-5.61985 4.87305,-8.42969 z"
       id="path8888"
       inkscape:label="blue_main"
       inkscape:connector-curvature="0" />
    <path
       style="display:inline;fill:#ffffff;fill-opacity:1"
       d="m 186.81445,414.67969 c -4.84703,0.65277 -9.69398,1.30621 -14.54101,1.95898 -0.6504,1.125 -1.30078,2.25001 -1.95117,3.375 5.49742,-1.77791 10.99476,-3.55607 16.49218,-5.33398 z"
       id="path43"
       inkscape:label="blue_small"
       inkscape:connector-curvature="0" />
    <path
       id="path39"
       style="display:inline;fill:#3c78d8;fill-opacity:1"
       inkscape:label="black"
       d="m 84.53125,397.77148 15.332031,26.52149 13.771489,-1.85352 c -2.27751,-3.93936 -4.55454,-7.87899 -6.83204,-11.81836 h 51.48829 c -8.58121,14.8432 -17.1627,29.68624 -25.74414,44.5293 -3.36676,-5.82344 -6.73285,-11.64726 -10.09961,-17.4707 l -12.50586,4.04492 22.60547,39.10156 C 148.55162,453.141 164.55681,425.4561 180.5625,397.77148 Z"
       sodipodi:nodetypes="ccccccccccc"
       inkscape:connector-curvature="0" />
  </g>
  <path
     d="m 43.515627,79.46876 q -4.046877,0 -7.124997,-1.40625 Q 33.32813,76.65626 31.65625,74.125 30,71.593754 30,68.265629 q 0,-2.8125 1.1875,-5.109375 1.1875,-2.3125 3.20313,-3.65625 2.01562,-1.34375 4.45312,-1.34375 2.234377,0 3.765627,1.125 1.53125,1.109375 1.92187,3.09375 -3.32812,0 -5.312497,1.765625 -1.98437,1.75 -1.98437,4.765625 0,2.75 1.65625,4.421875 1.671867,1.656251 4.421867,1.656251 3.39063,0 5.59375,-2.265626 2.21875,-2.28125 2.21875,-5.734375 0,-3.015625 -1.67187,-5.703125 -1.65625,-2.6875 -4.98438,-6.515625 -3.45312,-3.96875 -5.218747,-6.8125 -1.76562,-2.859375 -1.76562,-6.25 0,-3.328125 1.85937,-5.984379 1.859377,-2.65625 5.124997,-4.1875 Q 47.734377,30 51.828127,30 q 5.1875,0 8.28125,2.4375 3.10937,2.421875 3.10937,6.515629 0,2.6875 -1.34375,4.359375 -1.34375,1.65625 -3.51562,1.65625 -2.4375,0 -3.90625,-1.984375 1.21875,-0.890625 1.92187,-2.359375 0.70313,-1.484375 0.70313,-3.078129 0,-2.046875 -1.21875,-3.265625 -1.21875,-1.21875 -3.32813,-1.21875 -2.5625,0 -4.20312,1.828125 -1.625,1.828125 -1.625,4.640629 0,2.5625 1.46875,4.765625 1.48437,2.203125 4.60937,5.65625 2.5625,2.765625 4.125,4.75 1.57813,1.984375 2.6875,4.578125 1.125,2.578125 1.125,5.59375 0,4.09375 -2.26562,7.421875 -2.26563,3.328121 -6.20313,5.250011 -3.9375,1.92187 -8.73437,1.92187 z m 30.77681,14.84375 q -3.07813,0 -5.125,-1.60937 -2.04688,-1.59375 -2.04688,-4.59375 0,-3.65625 2.9375,-5.85938 2.95313,-2.20312 7.50001,-3.6875 l 0.76562,-3.45313 q -1.85937,2.04688 -3.78125,2.82813 -1.92187,0.76563 -3.89062,0.76563 -3.07813,0 -4.96875,-1.92188 -1.89063,-1.92188 -1.89063,-5.765631 0,-1.59375 0.51563,-4.15625 l 4.35937,-20.546875 h 9.20313 l -4.60938,21.765625 q -0.1875,0.765625 -0.1875,1.59375 0,2.8125 1.92188,2.8125 1.67187,0 2.9375,-1.4375 1.28125,-1.4375 2.0625,-3.8125 l 4.46875,-20.921875 h 9.21875 l -6.32813,29.703126 q 3.0625,-1.03125 4.92188,-3.078126 1.85937,-2.046875 3.14062,-6.078125 h 2.6875 q -1.73437,5.6875 -4.6875,8.343751 -2.9375,2.65626 -6.64062,3.62501 l -0.96875,4.60937 q -1.28125,6.20313 -4.42188,8.53125 -3.125,2.34375 -7.09375,2.34375 z m -1.46875,-4.98437 q 1.07812,0 2.09375,-1.48438 1.03125,-1.46875 1.60938,-4.21875 l 0.39062,-1.85937 q -6.26562,2.3125 -6.26562,5.4375 0,0.84375 0.5625,1.48437 0.57812,0.64063 1.60937,0.64063 z m 60.416443,-10.625 q -3.39062,0 -4.9375,-2.04688 -1.53125,-2.06251 -1.53125,-5.187506 0,-1.34375 0.3125,-3.03125 0.32813,-1.703125 0.67188,-3.296875 0.35937,-1.609375 0.48437,-2.0625 0.51563,-2.234375 0.95313,-4.40625 0.45312,-2.1875 0.45312,-3.53125 0,-3.265625 -2.29687,-3.265625 -1.67188,0 -2.95313,1.640625 -1.26562,1.625 -2.04687,4.25 l -4.34375,20.546881 h -9.21875 l 4.67187,-22.078131 q 0.1875,-0.765625 0.1875,-1.609375 0,-2.8125 -1.92187,-2.8125 -1.78125,0 -3.09375,1.640625 -1.3125,1.625 -2.07813,4.3125 l -4.35937,20.546881 h -9.218753 l 6.79687,-32.000006 h 9.203133 l -0.70313,3.328125 q 3.26563,-3.640625 7.8125,-3.640625 5.625,0 6.59375,5.5 3.51563,-5.4375 8.89063,-5.4375 3.26562,0 5.1875,1.796875 1.92187,1.78125 1.92187,5.421875 0,1.859375 -0.45312,4.140625 -0.4375,2.265625 -1.28125,5.53125 -0.5,1.984375 -0.92188,3.875 -0.42187,1.890625 -0.42187,2.96875 0,1.28125 0.57812,1.984375 0.57813,0.703125 1.98438,0.703125 1.53125,0 2.10937,-0.375 -0.375,3.265621 -2.32812,4.937511 -1.95313,1.65625 -4.70313,1.65625 z m 21.87955,-43.140641 q -4.03125,0.125 -6.17188,3.078129 -2.14062,2.9375 -2.14062,10.171875 0,2.359375 0.4375,3.296875 0.45312,0.921875 0.45312,1.046875 -3.45312,0 -5.15625,-1.4375 -1.6875,-1.4375 -1.6875,-4.765625 0,-4.546875 2.23438,-8.28125 2.25,-3.750004 7.14062,-6.046879 4.89063,-2.3125 12.45313,-2.3125 1.53125,0 4.09375,0.3125 4.60937,0.453125 6.53125,0.453125 3.39062,0 5.75,-0.765625 -0.1875,0.578125 -0.70313,2.53125 -0.51562,1.953125 -1.82812,3.328125 -1.3125,1.375 -3.54688,1.828129 -3.78125,0 -8.95312,-1.218754 l -2.6875,12.734379 h 9.34375 l -1.03125,4.734375 h -9.34375 l -5.1875,24.062507 h -9.21875 z m 23.87595,43.000011 q -4.73438,0 -7.48438,-2.42189 -2.75,-2.4375 -2.75,-7.687492 0,-4.34375 1.78125,-9.65625 1.79688,-5.3125 5.76563,-9.1875 3.96875,-3.875 9.98437,-3.875 8.1875,0 8.1875,10.234375 v 0.07813 q 0.20313,0.0625 0.70313,0.0625 2.10937,0 4.85937,-1.125 2.76563,-1.125 5,-2.71875 l 0.57813,1.734375 q -1.85938,1.96875 -4.84375,3.359375 -2.96875,1.375 -6.48438,1.9375 -0.51562,5.828125 -2.625,10.1875 -2.10937,4.343747 -5.4375,6.718747 -3.32812,2.35939 -7.23437,2.35939 z m 2.5625,-5.750007 q 1.53125,0 3.0625,-1.765625 1.54687,-1.765625 2.6875,-4.796875 1.15625,-3.046875 1.67187,-6.75 -1.73437,-0.390625 -1.73437,-2.6875 0,-2.625 1.98437,-3.453125 -0.125,-2.125 -0.64062,-2.921875 -0.5,-0.796875 -1.78125,-0.796875 -2.10938,0 -4.09375,3.078125 -1.98438,3.0625 -3.20313,7.359375 -1.21875,4.28125 -1.21875,7.546875 0,3.078125 0.70313,4.140625 0.70312,1.046875 2.5625,1.046875 z m 20.54907,-26.5 h 9.20312 l -0.82812,3.96875 q 2.17187,-1.921875 3.9375,-2.9375 1.76562,-1.03125 3.8125,-1.03125 2.04687,0 3.21875,1.40625 1.1875,1.40625 1.1875,3.390625 0,1.859375 -1.21875,3.265625 -1.20313,1.40625 -3.39063,1.40625 -1.40625,0 -1.89062,-0.671875 -0.46875,-0.671875 -0.73438,-1.953125 -0.1875,-0.828125 -0.375,-1.203125 -0.1875,-0.390625 -0.70312,-0.390625 -1.34375,0 -2.28125,0.546875 -0.92188,0.546875 -2.39063,1.890625 l -5.125,24.312507 h -9.21875 z m 28.86084,32.390627 q -4.73438,0 -7.35938,-2.46876 -2.625,-2.46875 -2.625,-7.718742 0,-4.40625 1.75,-9.71875 1.76563,-5.3125 5.64063,-9.1875 3.875,-3.875 9.82812,-3.875 3.82813,0 5.45313,1.671875 1.64062,1.65625 1.64062,4.21875 0,2.234375 -0.96875,3.453125 -0.95312,1.21875 -2.42187,1.21875 -1.07813,0 -2.23438,-0.765625 0.76563,-2.109375 0.76563,-3.78125 0,-1.21875 -0.45313,-1.921875 -0.4375,-0.703125 -1.34375,-0.703125 -1.92187,0 -3.84375,3.140625 -1.90625,3.140625 -3.125,7.625 -1.21875,4.46875 -1.21875,8.046875 0,3.140625 1.07813,4.265625 1.09375,1.125 3.53125,1.125 3.45312,0 5.90625,-1.59375 2.46875,-1.609375 5.42187,-4.875 h 2.17188 Q 241.45241,78.70313 230.96804,78.70313 Z m 24.45096,0 q -4.67188,0 -7.29688,-2.46876 -2.625,-2.46875 -2.625,-7.718742 0,-4.40625 1.71875,-9.71875 1.73438,-5.3125 5.64063,-9.1875 3.90625,-3.875 9.92187,-3.875 7.03125,0 7.03125,6.140625 0,3.59375 -2.04687,6.609375 -2.04688,3 -5.4375,4.828125 -3.39063,1.8125 -7.23438,2.078125 -0.125,1.40625 -0.125,1.90625 0,5.3125 3.96875,5.3125 1.79688,0 3.84375,-0.953125 2.04688,-0.953125 3.70313,-2.4375 -1.71875,9.484377 -11.0625,9.484377 z m 0.125,-16.390627 q 2.42187,-0.0625 4.5625,-1.59375 2.15625,-1.546875 3.46875,-3.9375 1.3125,-2.40625 1.3125,-5.03125 0,-2.625 -1.60938,-2.625 -2.23437,0 -4.45312,4.0625 -2.20313,4.0625 -3.28125,9.125 z"
     id="path9"
     inkscape:label="symforce"
     style="fill:#ffffff;fill-rule:nonzero"
     inkscape:connector-curvature="0" />
</svg>
